{
  "asset": {
    "generator": "glTF-Transform v4.2.0",
    "version": "2.0"
  },
  "accessors": [
    {
      "type": "VEC3",
      "componentType": 5126,
      "count": 1712,
      "max": [
        33.230735778808594,
        1.6005820035934448,
        25.75494384765625
      ],
      "min": [
        -34.35260009765625,
        0,
        -28.136817932128906
      ],
      "bufferView": 0,
      "byteOffset": 0
    },
    {
      "type": "VEC3",
      "componentType": 5126,
      "count": 1712,
      "bufferView": 0,
      "byteOffset": 12
    },
    {
      "type": "VEC2",
      "componentType": 5126,
      "count": 1712,
      "bufferView": 0,
      "byteOffset": 24
    },
    {
      "type": "SCALAR",
      "componentType": 5123,
      "count": 4656,
      "bufferView": 1,
      "byteOffset": 0
    },
    {
      "type": "SCALAR",
      "componentType": 5123,
      "count": 312,
      "bufferView": 1,
      "byteOffset": 9312
    },
    {
      "type": "SCALAR",
      "componentType": 5123,
      "count": 2598,
      "bufferView": 1,
      "byteOffset": 9936
    },
    {
      "type": "SCALAR",
      "componentType": 5123,
      "count": 2598,
      "bufferView": 1,
      "byteOffset": 15132
    },
    {
      "type": "VEC3",
      "componentType": 5126,
      "count": 112,
      "max": [
        37.50436019897461,
        1.5978786945343018,
        29.998828887939453
      ],
      "min": [
        -37.50436782836914,
        0,
        -29.99716567993164
      ],
      "bufferView": 2,
      "byteOffset": 0
    },
    {
      "type": "VEC3",
      "componentType": 5126,
      "count": 112,
      "bufferView": 2,
      "byteOffset": 12
    },
    {
      "type": "VEC2",
      "componentType": 5126,
      "count": 112,
      "bufferView": 2,
      "byteOffset": 24
    },
    {
      "type": "VEC3",
      "componentType": 5126,
      "count": 828,
      "max": [
        37.50436019897461,
        0,
        29.998828887939453
      ],
      "min": [
        -37.50436782836914,
        0,
        -29.99716567993164
      ],
      "bufferView": 3,
      "byteOffset": 0
    },
    {
      "type": "VEC3",
      "componentType": 5126,
      "count": 828,
      "bufferView": 3,
      "byteOffset": 12
    },
    {
      "type": "VEC2",
      "componentType": 5126,
      "count": 828,
      "bufferView": 3,
      "byteOffset": 24
    },
    {
      "type": "VEC3",
      "componentType": 5126,
      "count": 836,
      "max": [
        37.50436019897461,
        1.600000023841858,
        29.998828887939453
      ],
      "min": [
        -37.50436782836914,
        1.600000023841858,
        -29.99716567993164
      ],
      "bufferView": 4,
      "byteOffset": 0
    },
    {
      "type": "VEC3",
      "componentType": 5126,
      "count": 836,
      "bufferView": 4,
      "byteOffset": 12
    },
    {
      "type": "VEC2",
      "componentType": 5126,
      "count": 836,
      "bufferView": 4,
      "byteOffset": 24
    }
  ],
  "bufferViews": [
    {
      "buffer": 0,
      "byteOffset": 0,
      "byteLength": 54784,
      "byteStride": 32,
      "target": 34962
    },
    {
      "buffer": 0,
      "byteOffset": 54784,
      "byteLength": 20328,
      "target": 34963
    },
    {
      "buffer": 0,
      "byteOffset": 75112,
      "byteLength": 3584,
      "byteStride": 32,
      "target": 34962
    },
    {
      "buffer": 0,
      "byteOffset": 78696,
      "byteLength": 26496,
      "byteStride": 32,
      "target": 34962
    },
    {
      "buffer": 0,
      "byteOffset": 105192,
      "byteLength": 26752,
      "byteStride": 32,
      "target": 34962
    }
  ],
  "samplers": [
    {
      "magFilter": 9729,
      "minFilter": 9987,
      "wrapS": 10497,
      "wrapT": 10497
    }
  ],
  "textures": [
    {
      "sampler": 0,
      "extensions": {
        "KHR_texture_basisu": {
          "source": 1
        }
      }
    },
    {
      "sampler": 0,
      "extensions": {
        "KHR_texture_basisu": {
          "source": 0
        }
      }
    },
    {
      "sampler": 0,
      "extensions": {
        "KHR_texture_basisu": {
          "source": 3
        }
      }
    },
    {
      "sampler": 0,
      "extensions": {
        "KHR_texture_basisu": {
          "source": 2
        }
      }
    },
    {
      "sampler": 0,
      "extensions": {
        "KHR_texture_basisu": {
          "source": 5
        }
      }
    },
    {
      "sampler": 0,
      "extensions": {
        "KHR_texture_basisu": {
          "source": 4
        }
      }
    },
    {
      "sampler": 0,
      "extensions": {
        "KHR_texture_basisu": {
          "source": 6
        }
      }
    },
    {
      "sampler": 0,
      "extensions": {
        "KHR_texture_basisu": {
          "source": 8
        }
      }
    },
    {
      "sampler": 0,
      "extensions": {
        "KHR_texture_basisu": {
          "source": 7
        }
      }
    },
    {
      "sampler": 0,
      "extensions": {
        "KHR_texture_basisu": {
          "source": 9
        }
      }
    }
  ],
  "images": [
    {
      "name": "main_pcb_edge_gold_normal",
      "mimeType": "image/ktx2",
      "uri": "main_pcb_edge_gold_normal.ktx2"
    },
    {
      "name": "main_pcb_edge_gold_color",
      "mimeType": "image/ktx2",
      "uri": "main_pcb_edge_gold_color.ktx2"
    },
    {
      "name": "main_pcb_edge_bare_normal",
      "mimeType": "image/ktx2",
      "uri": "main_pcb_edge_bare_normal.ktx2"
    },
    {
      "name": "main_pcb_edge_bare_color",
      "mimeType": "image/ktx2",
      "uri": "main_pcb_edge_bare_color.ktx2"
    },
    {
      "name": "gmsl-deserializer_main_pcb_bot_normal",
      "mimeType": "image/ktx2",
      "uri": "gmsl-deserializer_main_pcb_bot_normal.ktx2"
    },
    {
      "name": "gmsl-deserializer_main_pcb_bot_color",
      "mimeType": "image/ktx2",
      "uri": "gmsl-deserializer_main_pcb_bot_color.ktx2"
    },
    {
      "name": "gmsl-deserializer_main_pcb_bot_metallic_roughness",
      "mimeType": "image/ktx2",
      "uri": "gmsl-deserializer_main_pcb_bot_metallic_roughness.ktx2"
    },
    {
      "name": "gmsl-deserializer_main_pcb_top_normal",
      "mimeType": "image/ktx2",
      "uri": "gmsl-deserializer_main_pcb_top_normal.ktx2"
    },
    {
      "name": "gmsl-deserializer_main_pcb_top_color",
      "mimeType": "image/ktx2",
      "uri": "gmsl-deserializer_main_pcb_top_color.ktx2"
    },
    {
      "name": "gmsl-deserializer_main_pcb_top_metallic_roughness",
      "mimeType": "image/ktx2",
      "uri": "gmsl-deserializer_main_pcb_top_metallic_roughness.ktx2"
    }
  ],
  "buffers": [
    {
      "uri": "gmsl-deserializer.bin",
      "byteLength": 131944
    }
  ],
  "materials": [
    {
      "name": "gltf_main_pcb_edge_gold",
      "doubleSided": true,
      "pbrMetallicRoughness": {
        "roughnessFactor": 0.1840909868478775,
        "metallicFactor": 0.8999999761581421,
        "baseColorTexture": {
          "index": 0
        }
      },
      "normalTexture": {
        "index": 1
      },
      "extensions": {
        "KHR_materials_clearcoat": {
          "clearcoatFactor": 0,
          "clearcoatRoughnessFactor": 0.2890909016132355
        },
        "KHR_materials_ior": {
          "ior": 1.4500000476837158
        },
        "KHR_materials_sheen": {
          "sheenColorFactor": [
            1,
            1,
            1
          ],
          "sheenRoughnessFactor": 0.5
        },
        "KHR_materials_specular": {
          "specularFactor": 0.9499998092651367
        }
      }
    },
    {
      "name": "gltf_main_pcb_edge_bare",
      "doubleSided": true,
      "pbrMetallicRoughness": {
        "roughnessFactor": 0.5,
        "metallicFactor": 0.10000000149011612,
        "baseColorTexture": {
          "index": 2
        }
      },
      "normalTexture": {
        "index": 3
      }
    },
    {
      "name": "gltf_gmsl-deserializer_main_pcb_bot",
      "doubleSided": true,
      "pbrMetallicRoughness": {
        "roughnessFactor": 1.5,
        "baseColorTexture": {
          "index": 4
        },
        "metallicRoughnessTexture": {
          "index": 6
        }
      },
      "normalTexture": {
        "index": 5
      }
    },
    {
      "name": "gltf_gmsl-deserializer_main_pcb_top",
      "doubleSided": true,
      "pbrMetallicRoughness": {
        "roughnessFactor": 1.5,
        "baseColorTexture": {
          "index": 7
        },
        "metallicRoughnessTexture": {
          "index": 9
        }
      },
      "normalTexture": {
        "index": 8
      }
    }
  ],
  "meshes": [
    {
      "name": "PCB_layer1_mesh",
      "primitives": [
        {
          "attributes": {
            "POSITION": 0,
            "NORMAL": 1,
            "TEXCOORD_0": 2
          },
          "mode": 4,
          "material": 0,
          "indices": 3
        },
        {
          "attributes": {
            "POSITION": 7,
            "NORMAL": 8,
            "TEXCOORD_0": 9
          },
          "mode": 4,
          "material": 1,
          "indices": 4
        },
        {
          "attributes": {
            "POSITION": 10,
            "NORMAL": 11,
            "TEXCOORD_0": 12
          },
          "mode": 4,
          "material": 2,
          "indices": 5
        },
        {
          "attributes": {
            "POSITION": 13,
            "NORMAL": 14,
            "TEXCOORD_0": 15
          },
          "mode": 4,
          "material": 3,
          "indices": 6
        }
      ]
    }
  ],
  "nodes": [
    {
      "name": "PCB_layer1",
      "mesh": 0
    },
    {
      "name": "gmsl-deserializer",
      "extras": {
        "PCB_X": 75.00872802734375,
        "PCB_Y": 59.994327545166016,
        "PCB_Z": 1.600000023841858
      },
      "children": [
        0
      ]
    }
  ],
  "scenes": [
    {
      "name": "Scene",
      "nodes": [
        1
      ]
    }
  ],
  "scene": 0,
  "extensionsUsed": [
    "KHR_materials_clearcoat",
    "KHR_materials_ior",
    "KHR_materials_sheen",
    "KHR_materials_specular",
    "KHR_texture_basisu"
  ],
  "extensionsRequired": [
    "KHR_texture_basisu"
  ]
}